<?xml version="1.0" encoding="utf-8"?>
<!-- Generator: Adobe Illustrator 12.0.0, SVG Export Plug-In  -->
<!DOCTYPE svg PUBLIC "-//W3C//DTD SVG 1.1//EN" "http://www.w3.org/Graphics/SVG/1.1/DTD/svg11.dtd" [
	<!ENTITY ns_flows "http://ns.adobe.com/Flows/1.0/">
	<!ENTITY ns_svg "http://www.w3.org/2000/svg">
	<!ENTITY ns_xlink "http://www.w3.org/1999/xlink">
]>
<svg  version="1.1" xmlns="&ns_svg;" xmlns:xlink="&ns_xlink;" xmlns:a="http://ns.adobe.com/AdobeSVGViewerExtensions/3.0/"
	 width="537" height="87" viewBox="-0.479 -0.504 537 87" enable-background="new -0.479 -0.504 537 87" xml:space="preserve">
<defs>
</defs>
<polygon fill="#769164" stroke="#FFFFFF" stroke-width="0.25" points="10.915,0.302 0.302,10.915 25.423,10.915 36.037,0.302 "/>
<polygon fill="#769164" stroke="#FFFFFF" stroke-width="0.25" points="36.037,25.424 25.423,36.037 50.546,36.037 61.159,25.424 "/>
<polygon fill="#769164" stroke="#FFFFFF" stroke-width="0.25" points="61.159,50.546 50.546,61.16 75.667,61.16 86.281,50.546 "/>
<polygon fill="#769164" stroke="#FFFFFF" stroke-width="0.25" points="75.667,85.859 86.281,75.667 86.281,50.546 75.667,61.16 "/>
<polygon fill="#769164" stroke="#FFFFFF" stroke-width="0.25" points="50.546,60.737 61.159,50.546 61.159,25.424 50.546,36.037 "/>
<polygon fill="#769164" stroke="#FFFFFF" stroke-width="0.25" points="25.423,35.615 36.037,25.424 36.037,0.302 25.423,10.915 "/>
<rect x="118.101" y="10.652" fill="#243A11" width="10.656" height="10.655"/>
<rect x="118.101" y="64.851" fill="#243A11" width="10.656" height="10.655"/>
<rect x="129.02" y="10.652" fill="#243A11" width="10.657" height="10.655"/>
<rect x="129.02" y="21.491" fill="#243A11" width="10.657" height="10.656"/>
<rect x="129.02" y="32.331" fill="#243A11" width="10.657" height="10.655"/>
<rect x="129.02" y="43.172" fill="#243A11" width="10.657" height="10.656"/>
<rect x="129.02" y="54.011" fill="#243A11" width="10.657" height="10.656"/>
<rect x="129.02" y="64.851" fill="#243A11" width="10.657" height="10.655"/>
<rect x="139.94" y="32.331" fill="#243A11" width="10.656" height="10.655"/>
<rect x="139.94" y="43.172" fill="#243A11" width="10.656" height="10.656"/>
<rect x="150.859" y="21.491" fill="#243A11" width="10.655" height="10.656"/>
<rect x="150.859" y="32.331" fill="#243A11" width="10.655" height="10.655"/>
<rect x="150.859" y="43.172" fill="#243A11" width="10.655" height="10.656"/>
<rect x="150.859" y="54.011" fill="#243A11" width="10.655" height="10.656"/>
<rect x="161.777" y="10.652" fill="#243A11" width="10.656" height="10.655"/>
<rect x="161.777" y="21.491" fill="#243A11" width="10.656" height="10.656"/>
<rect x="161.777" y="54.011" fill="#243A11" width="10.656" height="10.656"/>
<rect x="161.777" y="64.851" fill="#243A11" width="10.656" height="10.655"/>
<rect x="172.696" y="10.652" fill="#243A11" width="10.656" height="10.655"/>
<rect x="172.696" y="21.491" fill="#243A11" width="10.656" height="10.656"/>
<rect x="172.696" y="54.011" fill="#243A11" width="10.656" height="10.656"/>
<rect x="172.696" y="64.851" fill="#243A11" width="10.656" height="10.655"/>
<rect x="192.899" y="64.851" fill="#243A11" width="10.656" height="10.655"/>
<rect x="203.818" y="43.172" fill="#243A11" width="10.656" height="10.656"/>
<rect x="203.818" y="54.011" fill="#243A11" width="10.656" height="10.656"/>
<rect x="203.818" y="64.851" fill="#243A11" width="10.656" height="10.655"/>
<rect x="214.737" y="10.652" fill="#243A11" width="10.655" height="10.655"/>
<rect x="214.737" y="21.491" fill="#243A11" width="10.655" height="10.656"/>
<rect x="214.737" y="32.331" fill="#243A11" width="10.655" height="10.655"/>
<rect x="214.737" y="54.011" fill="#243A11" width="10.655" height="10.656"/>
<rect x="225.656" y="10.652" fill="#243A11" width="10.655" height="10.655"/>
<rect x="225.656" y="21.491" fill="#243A11" width="10.655" height="10.656"/>
<rect x="225.656" y="32.331" fill="#243A11" width="10.655" height="10.655"/>
<rect x="225.656" y="54.011" fill="#243A11" width="10.655" height="10.656"/>
<rect x="236.575" y="43.172" fill="#243A11" width="10.655" height="10.656"/>
<rect x="236.575" y="54.011" fill="#243A11" width="10.655" height="10.656"/>
<rect x="236.575" y="64.851" fill="#243A11" width="10.655" height="10.655"/>
<rect x="247.494" y="64.851" fill="#243A11" width="10.656" height="10.655"/>
<rect x="395.825" y="64.851" fill="#243A11" width="10.657" height="10.655"/>
<rect x="406.747" y="43.172" fill="#243A11" width="10.654" height="10.656"/>
<rect x="406.747" y="54.011" fill="#243A11" width="10.654" height="10.656"/>
<rect x="406.747" y="64.851" fill="#243A11" width="10.654" height="10.655"/>
<rect x="417.662" y="10.652" fill="#243A11" width="10.66" height="10.655"/>
<rect x="417.662" y="21.491" fill="#243A11" width="10.66" height="10.656"/>
<rect x="417.662" y="32.331" fill="#243A11" width="10.66" height="10.655"/>
<rect x="417.662" y="54.011" fill="#243A11" width="10.66" height="10.656"/>
<rect x="428.584" y="10.652" fill="#243A11" width="10.653" height="10.655"/>
<rect x="428.584" y="21.491" fill="#243A11" width="10.653" height="10.656"/>
<rect x="428.584" y="32.331" fill="#243A11" width="10.653" height="10.655"/>
<rect x="428.584" y="54.011" fill="#243A11" width="10.653" height="10.656"/>
<rect x="439.501" y="43.172" fill="#243A11" width="10.657" height="10.656"/>
<rect x="439.501" y="54.011" fill="#243A11" width="10.657" height="10.656"/>
<rect x="439.501" y="64.851" fill="#243A11" width="10.657" height="10.655"/>
<rect x="450.422" y="64.851" fill="#243A11" width="10.652" height="10.655"/>
<rect x="267.696" y="10.652" fill="#243A11" width="10.652" height="10.655"/>
<rect x="267.696" y="64.851" fill="#243A11" width="10.652" height="10.655"/>
<rect x="278.617" y="10.652" fill="#243A11" width="10.652" height="10.655"/>
<rect x="278.617" y="21.491" fill="#243A11" width="10.652" height="10.656"/>
<rect x="278.617" y="32.331" fill="#243A11" width="10.652" height="10.655"/>
<rect x="278.617" y="43.172" fill="#243A11" width="10.652" height="10.656"/>
<rect x="278.617" y="54.011" fill="#243A11" width="10.652" height="10.656"/>
<rect x="278.617" y="64.851" fill="#243A11" width="10.652" height="10.655"/>
<rect x="289.533" y="10.652" fill="#243A11" width="10.658" height="10.655"/>
<rect x="289.533" y="21.491" fill="#243A11" width="10.658" height="10.656"/>
<rect x="289.533" y="32.331" fill="#243A11" width="10.658" height="10.655"/>
<rect x="289.533" y="43.172" fill="#243A11" width="10.658" height="10.656"/>
<rect x="289.533" y="54.011" fill="#243A11" width="10.658" height="10.656"/>
<rect x="289.533" y="64.851" fill="#243A11" width="10.658" height="10.655"/>
<rect x="300.455" y="10.652" fill="#243A11" width="10.654" height="10.655"/>
<rect x="300.455" y="64.851" fill="#243A11" width="10.654" height="10.655"/>
<rect x="321.03" y="10.652" fill="#243A11" width="10.653" height="10.655"/>
<rect x="321.03" y="64.851" fill="#243A11" width="10.653" height="10.655"/>
<rect x="331.947" y="10.652" fill="#243A11" width="10.657" height="10.655"/>
<rect x="331.947" y="21.491" fill="#243A11" width="10.657" height="10.656"/>
<rect x="331.947" y="32.331" fill="#243A11" width="10.657" height="10.655"/>
<rect x="331.947" y="43.172" fill="#243A11" width="10.657" height="10.656"/>
<rect x="331.947" y="54.011" fill="#243A11" width="10.657" height="10.656"/>
<rect x="331.947" y="64.851" fill="#243A11" width="10.657" height="10.655"/>
<rect x="342.867" y="10.652" fill="#243A11" width="10.654" height="10.655"/>
<rect x="342.867" y="21.491" fill="#243A11" width="10.654" height="10.656"/>
<rect x="342.867" y="32.331" fill="#243A11" width="10.654" height="10.655"/>
<rect x="342.867" y="43.172" fill="#243A11" width="10.654" height="10.656"/>
<rect x="342.867" y="54.011" fill="#243A11" width="10.654" height="10.656"/>
<rect x="342.867" y="64.851" fill="#243A11" width="10.654" height="10.655"/>
<rect x="353.785" y="10.652" fill="#243A11" width="10.658" height="10.655"/>
<rect x="353.785" y="64.851" fill="#243A11" width="10.658" height="10.655"/>
<rect x="364.707" y="10.652" fill="#243A11" width="10.653" height="10.655"/>
<rect x="364.707" y="21.491" fill="#243A11" width="10.653" height="10.656"/>
<rect x="364.707" y="54.011" fill="#243A11" width="10.653" height="10.656"/>
<rect x="364.707" y="64.851" fill="#243A11" width="10.653" height="10.655"/>
<rect x="375.623" y="21.491" fill="#243A11" width="10.657" height="10.656"/>
<rect x="375.623" y="32.331" fill="#243A11" width="10.657" height="10.655"/>
<rect x="375.623" y="43.172" fill="#243A11" width="10.657" height="10.656"/>
<rect x="375.623" y="54.011" fill="#243A11" width="10.657" height="10.656"/>
<rect x="470.625" y="64.851" fill="#243A11" width="10.652" height="10.655"/>
<rect x="481.54" y="10.652" fill="#243A11" width="10.66" height="10.655"/>
<rect x="481.54" y="21.491" fill="#243A11" width="10.66" height="10.656"/>
<rect x="481.54" y="32.331" fill="#243A11" width="10.66" height="10.655"/>
<rect x="481.54" y="43.172" fill="#243A11" width="10.66" height="10.656"/>
<rect x="481.54" y="54.011" fill="#243A11" width="10.66" height="10.656"/>
<rect x="481.54" y="64.851" fill="#243A11" width="10.66" height="10.655"/>
<rect x="492.463" y="21.491" fill="#243A11" width="10.653" height="10.656"/>
<rect x="492.463" y="32.331" fill="#243A11" width="10.653" height="10.655"/>
<rect x="503.379" y="43.172" fill="#243A11" width="10.658" height="10.656"/>
<rect x="503.379" y="54.011" fill="#243A11" width="10.658" height="10.656"/>
<rect x="514.301" y="10.652" fill="#243A11" width="10.651" height="10.655"/>
<rect x="514.301" y="21.491" fill="#243A11" width="10.651" height="10.656"/>
<rect x="514.301" y="32.331" fill="#243A11" width="10.651" height="10.655"/>
<rect x="514.301" y="43.172" fill="#243A11" width="10.651" height="10.656"/>
<rect x="514.301" y="54.011" fill="#243A11" width="10.651" height="10.656"/>
<rect x="514.301" y="64.851" fill="#243A11" width="10.651" height="10.655"/>
<rect x="525.216" y="10.652" fill="#243A11" width="10.658" height="10.655"/>
</svg>
